<?xml version="1.0" encoding="utf-8"?>
<!-- Generator: Adobe Illustrator 25.2.1, SVG Export Plug-In . SVG Version: 6.00 Build 0)  -->
<svg version="1.1" id="Layer_1" xmlns="http://www.w3.org/2000/svg" xmlns:xlink="http://www.w3.org/1999/xlink" x="0px" y="0px"
	 viewBox="0 0 1024 1024" style="enable-background:new 0 0 1024 1024;" xml:space="preserve">
<style type="text/css">
	.st0{display:none;}
	.st1{fill:#262626;}
	.st2{fill:#FFFFFF;}
</style>
<rect x="0.35" y="-0.24" class="st0" width="1024" height="1024"/>
<path class="st1" d="M512.35,1022.32c-141.77,0-262.31-50.12-361.51-150.37C51.61,771.69,1.99,651.69,1.99,511.95
	c0-143.79,49.62-265.31,148.86-364.55C250.04,48.21,370.59-1.45,512.35-1.45c141.73,0,262.27,49.66,361.51,148.86
	c99.2,99.24,148.86,220.75,148.86,364.55c0,139.74-49.66,259.74-148.86,359.99C774.62,972.19,654.08,1022.32,512.35,1022.32z"/>
<g>
	<g>
		<g>
			<path class="st2" d="M220.59,648.14V370.79h39.06v277.34H220.59z M220.59,407.9v-37.11h183.59v37.11H220.59z M220.59,527.82
				v-37.11h148.44v37.11H220.59z M220.59,648.14v-37.11h183.59v37.11H220.59z"/>
		</g>
		<g>
			<path class="st2" d="M550.28,648.14l-62.89-89.45l-83.2-117.58h46.88l63.67,92.97l82.42,114.06H550.28z M404.18,648.14
				l82.42-114.06l63.67-92.97h46.88l-85.55,117.58l-60.55,89.45H404.18z"/>
		</g>
		<g>
			<path class="st2" d="M597.15,478.21v-37.11h203.12v37.11H597.15z M629.97,648.14V441.11h41.41v207.03H629.97z M774.5,652.04
				c-19.14,0-32.98-5.11-41.5-15.33c-8.53-10.22-12.79-26.59-12.79-49.12V441.11h41.41v144.53c0,10.29,1.53,17.74,4.59,22.36
				c3.06,4.62,9.73,6.93,20.02,6.93c1.82,0,3.68-0.13,5.57-0.39c1.89-0.26,4.07-0.65,6.54-1.17l4.69,36.33
				c-4.82,0.91-9.25,1.53-13.28,1.86C785.69,651.88,780.62,652.04,774.5,652.04z"/>
		</g>
	</g>
	<g>
		<g>
			<path class="st2" d="M428.37,409.07v-37.11h5.23v37.11H428.37z M432.97,397.57v-4.97h6.33c2.86,0,5.02-0.71,6.48-2.13
				c1.46-1.42,2.2-3.5,2.2-6.23c0-2.4-0.73-4.23-2.2-5.46c-1.46-1.24-3.62-1.86-6.48-1.86h-6.22v-4.97h6.22
				c4.65,0,8.18,1.04,10.57,3.11c2.4,2.07,3.59,5.13,3.59,9.17c0,4.37-1.2,7.69-3.59,9.94c-2.4,2.26-5.92,3.38-10.57,3.38H432.97z"
				/>
			<path class="st2" d="M468.34,409.07v-4.55h18.5v4.55H468.34z M469.39,385.91v-4.55h9.25l0.52,4.55H469.39z M474.51,409.07v-27.71
				h4.5l1.05,7.95v19.76H474.51z M480.05,397.15l-1.62-8.68h2.14c0.31-5.09,2.86-7.63,7.63-7.63c2.86,0,4.93,0.82,6.22,2.46
				c1.29,1.64,1.93,4.29,1.93,7.95h-5.49c0-2.02-0.3-3.48-0.9-4.36c-0.6-0.89-1.57-1.33-2.92-1.33c-2.35,0-4.11,1.01-5.27,3.02
				C480.63,390.57,480.05,393.44,480.05,397.15z"/>
			<path class="st2" d="M524.01,409.59c-3.83,0-6.81-1.25-8.94-3.76c-2.13-2.51-3.19-6.05-3.19-10.61c0-4.58,1.06-8.12,3.19-10.62
				c2.13-2.5,5.11-3.75,8.94-3.75c3.85,0,6.83,1.25,8.95,3.75c2.12,2.5,3.18,6.04,3.18,10.62c0,4.57-1.06,8.1-3.18,10.61
				C530.84,408.33,527.86,409.59,524.01,409.59z M524.01,404.62c2.04,0,3.61-0.82,4.72-2.46c1.11-1.64,1.66-3.96,1.66-6.95
				c0-3.01-0.55-5.34-1.66-6.97c-1.11-1.63-2.68-2.44-4.72-2.44c-2.04,0-3.61,0.81-4.72,2.44c-1.11,1.63-1.66,3.95-1.66,6.97
				c0,3,0.55,5.31,1.66,6.95C520.4,403.8,521.97,404.62,524.01,404.62z"/>
			<path class="st2" d="M555.1,421.61l-0.26-4.91l5.23-0.47c2.8-0.26,4.84-1.08,6.1-2.46s1.9-3.49,1.9-6.33v-8.42h5.54v7.58
				c0,3.29-0.49,5.97-1.46,8.04c-0.98,2.06-2.5,3.62-4.57,4.68c-2.07,1.05-4.75,1.71-8.02,1.97L555.1,421.61z M557.29,385.91v-4.55
				h11.19v4.55H557.29z M570.26,376.97c-1.06,0-1.97-0.38-2.73-1.14c-0.76-0.76-1.14-1.67-1.14-2.73c0-1.08,0.38-1.99,1.14-2.74
				c0.76-0.75,1.67-1.12,2.73-1.12c1.08,0,2,0.38,2.74,1.12c0.75,0.75,1.12,1.66,1.12,2.74c0,1.06-0.38,1.97-1.12,2.73
				C572.25,376.59,571.34,376.97,570.26,376.97z M568.06,399.92v-18.56h5.54v18.56H568.06z"/>
			<path class="st2" d="M610.81,409.59c-4.72,0-8.37-1.24-10.94-3.72c-2.57-2.48-3.86-6.05-3.86-10.7c0-4.53,1.09-8.05,3.27-10.56
				c2.18-2.51,5.25-3.76,9.23-3.76c3.75,0,6.64,1.13,8.69,3.4c2.05,2.27,3.07,5.56,3.07,9.88c0,1.27-0.05,2.46-0.16,3.55h-19.45
				v-4.23h14.58c0-2.49-0.59-4.4-1.78-5.74c-1.19-1.33-2.82-2-4.91-2c-2.35,0-4.18,0.8-5.48,2.4c-1.3,1.6-1.95,3.87-1.95,6.8
				c0,3.21,0.89,5.65,2.68,7.32c1.79,1.67,4.33,2.51,7.62,2.51c1.15,0,2.28-0.07,3.4-0.2c1.12-0.13,2.25-0.31,3.4-0.54l0.68,4.86
				c-1.64,0.31-3.14,0.51-4.5,0.6C613.06,409.55,611.86,409.59,610.81,409.59z"/>
			<path class="st2" d="M652.88,409.59c-4.72,0-8.37-1.24-10.94-3.72c-2.57-2.48-3.86-6.05-3.86-10.7c0-4.53,1.21-8.05,3.65-10.56
				c2.43-2.51,5.9-3.76,10.42-3.76c2.7,0,5.01,0.5,6.94,1.5c1.92,1,3.3,2.42,4.12,4.25l-4.26,3.21c-0.78-1.27-1.79-2.26-3.01-2.95
				s-2.55-1.05-4-1.05c-2.61,0-4.64,0.79-6.09,2.37s-2.17,3.82-2.17,6.73c0,3.15,0.85,5.56,2.55,7.23c1.7,1.66,4.12,2.5,7.28,2.5
				c1.29,0,2.58-0.06,3.87-0.18c1.29-0.12,2.54-0.29,3.76-0.5l0.63,4.86c-1.43,0.31-2.91,0.52-4.43,0.63
				C655.81,409.54,654.33,409.59,652.88,409.59z"/>
			<path class="st2" d="M678.44,385.91v-4.55h25.09v4.55H678.44z M685.39,396v-23h5.54v23H685.39z M697.31,409.59
				c-4.2,0-7.24-0.87-9.11-2.61c-1.87-1.74-2.81-4.53-2.81-8.36v-4.7h5.54v4.44c0,2.2,0.54,3.79,1.61,4.78s2.84,1.49,5.29,1.49
				c0.87,0,1.79-0.05,2.77-0.14c0.98-0.1,2.09-0.22,3.35-0.38l0.63,4.86c-1.22,0.21-2.41,0.37-3.57,0.47
				C699.85,409.54,698.61,409.59,697.31,409.59z"/>
		</g>
	</g>
</g>
</svg>
